<svg xmlns="http://www.w3.org/2000/svg" xmlns:xlink="http://www.w3.org/1999/xlink" viewBox="0 0 120 120"><defs><style>.cls-1{isolation:isolate;}.cls-2{fill:#366994;}.cls-3{fill:#387cb5;}.cls-4{opacity:0.3;mix-blend-mode:multiply;}.cls-5{fill:#fff;}.cls-6{fill:#f7f7f7;}.cls-7{fill:#efefef;}.cls-8{fill:#e6e6e6;}.cls-9{fill:#dedede;}.cls-10{fill:#d6d6d6;}.cls-11{fill:#cecece;}.cls-12{fill:#c5c5c5;}.cls-13{fill:#bdbdbd;}.cls-14{fill:#b5b5b5;}.cls-15{fill:#adadad;}.cls-16{fill:#a5a5a5;}.cls-17{fill:#9c9c9c;}.cls-18{fill:#949494;}.cls-19{fill:#8c8c8c;}.cls-20{fill:#848484;}.cls-21{fill:#7b7b7b;}.cls-22{fill:#737373;}.cls-23{fill:#6b6b6b;}.cls-24{fill:#636363;}.cls-25{fill:#5a5a5a;}.cls-26{fill:#525252;}.cls-27{fill:#4a4a4a;}.cls-28{fill:#424242;}.cls-29{fill:#3a3a3a;}.cls-30{fill:#313131;}.cls-31{fill:#292929;}.cls-32{fill:#212121;}.cls-33{fill:#191919;}.cls-34{fill:#101010;}.cls-35{fill:#080808;}.cls-36{fill:url(#linear-gradient);}.cls-37{fill:url(#linear-gradient-2);}</style><linearGradient id="linear-gradient" x1="-1610.12" y1="189.31" x2="-1610.09" y2="189.29" gradientTransform="matrix(1849.27, 0, 0, -1853.39, 2977560.22, 350893.67)" gradientUnits="userSpaceOnUse"><stop offset="0" stop-color="#387eb8"/><stop offset="1" stop-color="#366994"/></linearGradient><linearGradient id="linear-gradient-2" x1="-1610.45" y1="189.64" x2="-1610.42" y2="189.61" gradientTransform="matrix(1849.27, 0, 0, -1853.39, 2978204.2, 351520.99)" gradientUnits="userSpaceOnUse"><stop offset="0" stop-color="#ffe052"/><stop offset="1" stop-color="#ffc331"/></linearGradient></defs><title>S</title><g class="cls-1"><g id="Layer_1" data-name="Layer 1"><rect class="cls-2" width="120" height="120"/><polygon class="cls-3" points="120 120 0 120 0 21.8 120 98.19 120 120"/><g class="cls-4"><path class="cls-5" d="M46.23,25.35a4.12,4.12,0,0,1-4.12,4.13h0A4.12,4.12,0,0,1,38,25.36h0a4.12,4.12,0,0,1,4.12-4.13h0a4.13,4.13,0,0,1,4.13,4.12ZM42.39,59.67H65.16S78,59.88,78,47.31V26.53S79.89,14,54.76,14C30.7,14,32.2,24.39,32.2,24.39l0,10.8h23v3.25H23.12S7.72,36.69,7.72,61,21.16,84.37,21.16,84.37h8V73.11S28.74,59.67,42.39,59.67Z"/><path class="cls-5" d="M64,96.81a4.12,4.12,0,0,1,4.12-4.13h0a4.13,4.13,0,0,1,4.13,4.12h0a4.12,4.12,0,0,1-4.12,4.13h0A4.12,4.12,0,0,1,64,96.82ZM89,37.79H81V49.06s.43,13.43-13.22,13.43H45s-12.79-.21-12.79,12.36V95.63s-1.94,12.58,23.2,12.58h0c24,0,22.55-10.43,22.55-10.43L78,87H55V83.73H87.08s15.39,1.74,15.39-22.53S89,37.79,89,37.79Z"/><path class="cls-6" d="M46.39,25.29a4.12,4.12,0,0,1-4.12,4.13h0a4.12,4.12,0,0,1-4.12-4.12h0a4.12,4.12,0,0,1,4.12-4.13h0a4.13,4.13,0,0,1,4.13,4.13ZM42.56,59.61H65.32s12.79.21,12.79-12.36V26.47s2-12.57-23.19-12.57c-24,0-22.55,10.43-22.55,10.43l0,10.8h23v3.25H23.28S7.89,36.63,7.89,60.9,21.32,84.31,21.32,84.31h8V73.05S28.91,59.61,42.56,59.61Z"/><path class="cls-6" d="M64.13,96.75a4.13,4.13,0,0,1,4.12-4.13h0a4.13,4.13,0,0,1,4.13,4.13h0a4.12,4.12,0,0,1-4.12,4.13h0a4.12,4.12,0,0,1-4.13-4.12Zm25.07-59h-8V49S81.62,62.43,68,62.43H45.2s-12.79-.21-12.79,12.36V95.57s-1.94,12.58,23.19,12.58h0c24.06,0,22.55-10.43,22.55-10.43l0-10.81h-23V83.67H87.24s15.39,1.74,15.39-22.53S89.2,37.74,89.2,37.74Z"/><path class="cls-7" d="M46.56,25.23a4.12,4.12,0,0,1-4.12,4.13h0a4.12,4.12,0,0,1-4.13-4.12h0a4.12,4.12,0,0,1,4.12-4.12h0a4.12,4.12,0,0,1,4.13,4.12ZM42.72,59.55H65.49s12.79.21,12.79-12.36V26.41s1.94-12.57-23.19-12.57C31,13.84,32.54,24.27,32.54,24.27l0,10.8H55.51v3.25H23.45S8.05,36.57,8.05,60.84,21.49,84.25,21.49,84.25h8V73S29.07,59.55,42.72,59.55Z"/><path class="cls-7" d="M64.3,96.69a4.13,4.13,0,0,1,4.12-4.13h0a4.13,4.13,0,0,1,4.13,4.13h0a4.12,4.12,0,0,1-4.12,4.13h0A4.11,4.11,0,0,1,64.3,96.7Zm25.07-59h-8V48.94s.43,13.43-13.22,13.43H45.36s-12.79-.2-12.79,12.36V95.51s-1.94,12.58,23.2,12.58h0c24,0,22.55-10.43,22.55-10.43l0-10.81h-23V83.61H87.41s15.39,1.74,15.39-22.52S89.37,37.68,89.37,37.68Z"/><path class="cls-8" d="M46.72,25.18A4.11,4.11,0,0,1,42.6,29.3h0a4.11,4.11,0,0,1-4.12-4.12h0a4.12,4.12,0,0,1,4.12-4.13h0a4.12,4.12,0,0,1,4.13,4.12ZM42.89,59.5H65.65s12.79.2,12.79-12.36V26.36s2-12.58-23.19-12.58c-24,0-22.55,10.43-22.55,10.43l0,10.81h23v3.24H23.61S8.22,36.52,8.22,60.78,21.65,84.19,21.65,84.19h8V72.93S29.24,59.5,42.89,59.5Z"/><path class="cls-8" d="M64.46,96.64a4.12,4.12,0,0,1,4.12-4.13h0a4.12,4.12,0,0,1,4.13,4.12h0a4.12,4.12,0,0,1-4.12,4.12h0a4.13,4.13,0,0,1-4.13-4.13Zm25.07-59h-8V48.88S82,62.31,68.29,62.31H45.53s-12.79-.2-12.79,12.37V95.46S30.8,108,55.93,108h0C80,108,78.48,97.6,78.48,97.6l0-10.8h-23V83.55H87.57S103,85.3,103,61,89.53,37.62,89.53,37.62Z"/><path class="cls-9" d="M46.89,25.12a4.13,4.13,0,0,1-4.12,4.13h0a4.13,4.13,0,0,1-4.13-4.13h0A4.12,4.12,0,0,1,42.75,21h0a4.12,4.12,0,0,1,4.13,4.12ZM43.06,59.44H65.82s12.79.2,12.79-12.36V26.3s1.94-12.58-23.19-12.58c-24.06,0-22.55,10.43-22.55,10.43l0,10.81h23V38.2H23.78S8.39,36.46,8.39,60.73s13.43,23.4,13.43,23.4h8V72.87S29.4,59.44,43.06,59.44Z"/><path class="cls-9" d="M64.63,96.58a4.12,4.12,0,0,1,4.12-4.13h0a4.12,4.12,0,0,1,4.12,4.12h0a4.12,4.12,0,0,1-4.12,4.13h0a4.13,4.13,0,0,1-4.13-4.13Zm25.07-59h-8V48.82s.43,13.44-13.22,13.44H45.7s-12.79-.21-12.79,12.36V95.4S31,108,56.1,108h0c24.05,0,22.55-10.43,22.55-10.43l0-10.8h-23V83.49H87.74S103.13,85.24,103.13,61,89.7,37.56,89.7,37.56Z"/><path class="cls-10" d="M47.05,25.06a4.12,4.12,0,0,1-4.12,4.13h0a4.13,4.13,0,0,1-4.13-4.12h0a4.12,4.12,0,0,1,4.12-4.13h0a4.12,4.12,0,0,1,4.12,4.12ZM43.22,59.38H66S78.78,59.59,78.78,47V26.24s1.94-12.58-23.2-12.58C31.53,13.66,33,24.09,33,24.09l0,10.81H56v3.24H23.94S8.55,36.4,8.55,60.67,22,84.07,22,84.07h8V72.81S29.57,59.38,43.22,59.38Z"/><path class="cls-10" d="M64.79,96.52a4.12,4.12,0,0,1,4.12-4.13h0a4.12,4.12,0,0,1,4.13,4.12h0a4.12,4.12,0,0,1-4.12,4.13h0a4.13,4.13,0,0,1-4.13-4.12Zm25.07-59h-8V48.76S82.28,62.2,68.63,62.2H45.86S33.07,62,33.07,74.56V95.34s-1.94,12.57,23.19,12.57h0c24.06,0,22.55-10.43,22.55-10.43l0-10.8h-23V83.43H87.9s15.39,1.75,15.39-22.52S89.86,37.5,89.86,37.5Z"/><path class="cls-11" d="M47.22,25a4.12,4.12,0,0,1-4.12,4.13h0A4.12,4.12,0,0,1,39,25h0a4.12,4.12,0,0,1,4.12-4.13h0A4.12,4.12,0,0,1,47.22,25ZM43.39,59.32H66.15S78.94,59.53,78.94,47V26.18S80.88,13.6,55.75,13.6C31.69,13.6,33.2,24,33.2,24l0,10.81h23v3.25H24.11S8.72,36.34,8.72,60.61,22.15,84,22.15,84h8V72.75S29.73,59.32,43.39,59.32Z"/><path class="cls-11" d="M65,96.46a4.12,4.12,0,0,1,4.12-4.13h0a4.12,4.12,0,0,1,4.12,4.12h0a4.12,4.12,0,0,1-4.12,4.13h0A4.12,4.12,0,0,1,65,96.47ZM90,37.44H82V48.71s.43,13.43-13.22,13.43H46S33.24,61.93,33.24,74.5V95.28s-2,12.58,23.19,12.58h0C80.48,107.86,79,97.43,79,97.43l0-10.81H56V83.38H88.07s15.39,1.74,15.39-22.53S90,37.44,90,37.44Z"/><path class="cls-12" d="M47.39,24.94a4.13,4.13,0,0,1-4.13,4.13h0A4.12,4.12,0,0,1,39.13,25h0a4.12,4.12,0,0,1,4.12-4.13h0a4.14,4.14,0,0,1,4.13,4.12ZM43.55,59.26H66.32s12.79.21,12.79-12.36V26.12s1.94-12.57-23.2-12.57C31.86,13.55,33.36,24,33.36,24l0,10.8h23V38H24.27S8.88,36.28,8.88,60.55,22.31,84,22.31,84h8V72.7S29.9,59.26,43.55,59.26Z"/><path class="cls-12" d="M65.12,96.4a4.13,4.13,0,0,1,4.12-4.13h0a4.13,4.13,0,0,1,4.13,4.12h0a4.12,4.12,0,0,1-4.12,4.13h0a4.12,4.12,0,0,1-4.13-4.12Zm25.07-59h-8V48.65S82.61,62.08,69,62.08H46.19S33.4,61.87,33.4,74.44V95.22S31.46,107.8,56.59,107.8h0c24.06,0,22.56-10.43,22.56-10.43l0-10.81h-23V83.32H88.23s15.4,1.74,15.4-22.53S90.19,37.39,90.19,37.39Z"/><path class="cls-13" d="M47.55,24.88A4.12,4.12,0,0,1,43.43,29h0a4.12,4.12,0,0,1-4.13-4.12h0a4.14,4.14,0,0,1,4.12-4.13h0a4.13,4.13,0,0,1,4.13,4.13ZM43.72,59.2H66.48s12.79.21,12.79-12.36V26.06s1.94-12.57-23.19-12.57c-24,0-22.55,10.43-22.55,10.43l0,10.8h23V38H24.44S9.05,36.22,9.05,60.49,22.48,83.9,22.48,83.9h8V72.64S30.06,59.2,43.72,59.2Z"/><path class="cls-13" d="M65.29,96.34a4.13,4.13,0,0,1,4.12-4.13h0a4.14,4.14,0,0,1,4.13,4.13h0a4.13,4.13,0,0,1-4.13,4.13h0a4.12,4.12,0,0,1-4.13-4.12Zm25.07-59h-8V48.59S82.77,62,69.12,62H46.36s-12.79-.2-12.79,12.36V95.16s-1.95,12.58,23.19,12.58h0c24.05,0,22.55-10.43,22.55-10.43l0-10.81h-23V83.26H88.4S103.79,85,103.79,60.74,90.36,37.33,90.36,37.33Z"/><path class="cls-14" d="M47.72,24.83A4.13,4.13,0,0,1,43.59,29h0a4.12,4.12,0,0,1-4.13-4.12h0a4.12,4.12,0,0,1,4.12-4.13h0a4.13,4.13,0,0,1,4.13,4.12ZM43.88,59.15H66.65s12.79.2,12.79-12.37V26s1.94-12.58-23.2-12.58c-24.05,0-22.55,10.43-22.55,10.43l0,10.81h23v3.24H24.6S9.21,36.16,9.21,60.43,22.65,83.84,22.65,83.84h8V72.58S30.23,59.15,43.88,59.15Z"/><path class="cls-14" d="M65.45,96.29a4.13,4.13,0,0,1,4.12-4.13h0a4.12,4.12,0,0,1,4.13,4.12h0a4.12,4.12,0,0,1-4.12,4.12h0a4.12,4.12,0,0,1-4.13-4.12Zm25.07-59h-8V48.53S82.94,62,69.29,62H46.52s-12.79-.2-12.79,12.37V95.11s-1.94,12.57,23.2,12.57h0c24.05,0,22.55-10.43,22.55-10.43l0-10.81h-23V83.2H88.57S104,85,104,60.68,90.52,37.27,90.52,37.27Z"/><path class="cls-15" d="M47.88,24.77a4.13,4.13,0,0,1-4.12,4.13h0a4.13,4.13,0,0,1-4.13-4.13h0a4.13,4.13,0,0,1,4.12-4.13h0a4.12,4.12,0,0,1,4.13,4.12ZM44.05,59.09H66.81s12.79.2,12.79-12.36V26s1.94-12.58-23.19-12.58c-24,0-22.55,10.43-22.55,10.43l0,10.81h23v3.24H24.77S9.38,36.11,9.38,60.37,22.81,83.78,22.81,83.78h8V72.52S30.4,59.09,44.05,59.09Z"/><path class="cls-15" d="M65.62,96.23a4.12,4.12,0,0,1,4.12-4.13h0a4.13,4.13,0,0,1,4.13,4.12h0a4.14,4.14,0,0,1-4.13,4.13h0a4.13,4.13,0,0,1-4.13-4.13Zm25.07-59h-8V48.47s.43,13.44-13.22,13.44H46.69S33.9,61.7,33.9,74.27V95.05S32,107.62,57.09,107.62h0c24,0,22.55-10.43,22.55-10.43l0-10.8h-23V83.14H88.73s15.39,1.75,15.39-22.52S90.69,37.21,90.69,37.21Z"/><path class="cls-16" d="M48.05,24.71a4.13,4.13,0,0,1-4.13,4.13h0a4.13,4.13,0,0,1-4.13-4.12h0a4.12,4.12,0,0,1,4.12-4.13h0a4.13,4.13,0,0,1,4.13,4.12ZM44.21,59H67s12.79.21,12.79-12.36V25.89s1.94-12.58-23.2-12.58C32.52,13.31,34,23.74,34,23.74l0,10.81H57v3.24H24.93S9.54,36.05,9.54,60.32,23,83.72,23,83.72h8V72.46S30.56,59,44.21,59Z"/><path class="cls-16" d="M65.78,96.17A4.13,4.13,0,0,1,69.9,92h0A4.12,4.12,0,0,1,74,96.16h0a4.12,4.12,0,0,1-4.12,4.13h0a4.13,4.13,0,0,1-4.13-4.12Zm25.07-59h-8V48.41s.43,13.44-13.22,13.44H46.85s-12.79-.21-12.79,12.36V95s-1.94,12.57,23.2,12.57h0c24.05,0,22.55-10.43,22.55-10.43l0-10.8h-23V83.08H88.9s15.39,1.75,15.39-22.52S90.85,37.15,90.85,37.15Z"/><path class="cls-17" d="M48.21,24.65a4.12,4.12,0,0,1-4.12,4.13h0A4.13,4.13,0,0,1,40,24.66h0a4.13,4.13,0,0,1,4.12-4.13h0a4.12,4.12,0,0,1,4.13,4.12ZM44.38,59H67.14s12.79.21,12.79-12.36V25.83s1.94-12.58-23.19-12.58c-24.05,0-22.55,10.43-22.55,10.43l0,10.81h23v3.24H25.1S9.71,36,9.71,60.26,23.14,83.67,23.14,83.67h8V72.4S30.73,59,44.38,59Z"/><path class="cls-17" d="M66,96.11A4.12,4.12,0,0,1,70.07,92h0a4.13,4.13,0,0,1,4.13,4.12h0a4.13,4.13,0,0,1-4.13,4.13h0A4.12,4.12,0,0,1,66,96.12ZM91,37.09H83V48.35s.43,13.44-13.22,13.44H47s-12.79-.21-12.79,12.36V94.93s-1.94,12.58,23.19,12.58h0c24,0,22.55-10.43,22.55-10.43l0-10.81H57V83H89.06s15.39,1.74,15.39-22.53S91,37.09,91,37.09Z"/><path class="cls-18" d="M48.38,24.59a4.13,4.13,0,0,1-4.13,4.13h0a4.12,4.12,0,0,1-4.13-4.12h0a4.12,4.12,0,0,1,4.12-4.13h0a4.14,4.14,0,0,1,4.13,4.12ZM44.54,58.91H67.31s12.79.21,12.79-12.36V25.77S82,13.2,56.9,13.2c-24,0-22.55,10.43-22.55,10.43l0,10.8H57.33v3.25H25.26S9.87,35.93,9.87,60.2,23.31,83.61,23.31,83.61h8V72.35S30.89,58.91,44.54,58.91Z"/><path class="cls-18" d="M66.11,96.05a4.13,4.13,0,0,1,4.12-4.13h0A4.13,4.13,0,0,1,74.37,96h0a4.12,4.12,0,0,1-4.12,4.13h0a4.13,4.13,0,0,1-4.13-4.12ZM91.18,37h-8V48.3S83.6,61.73,70,61.73H47.18s-12.79-.21-12.79,12.36V94.87s-1.94,12.58,23.2,12.58h0c24,0,22.55-10.43,22.55-10.43l0-10.81h-23V83H89.23s15.39,1.74,15.39-22.53S91.18,37,91.18,37Z"/><path class="cls-19" d="M48.54,24.53a4.12,4.12,0,0,1-4.12,4.13h0a4.13,4.13,0,0,1-4.13-4.12h0a4.14,4.14,0,0,1,4.13-4.13h0a4.13,4.13,0,0,1,4.13,4.13ZM44.71,58.85H67.47s12.79.21,12.79-12.36V25.71S82.2,13.14,57.07,13.14c-24,0-22.55,10.43-22.55,10.43l0,10.8h23v3.25H25.43S10,35.87,10,60.14,23.47,83.55,23.47,83.55h8V72.29S31.06,58.85,44.71,58.85Z"/><path class="cls-19" d="M66.28,96a4.13,4.13,0,0,1,4.12-4.13h0A4.14,4.14,0,0,1,74.54,96h0a4.13,4.13,0,0,1-4.12,4.13h0A4.12,4.12,0,0,1,66.28,96ZM91.35,37h-8V48.24s.43,13.43-13.22,13.43H47.35S34.56,61.46,34.56,74V94.81s-1.94,12.58,23.19,12.58h0C81.8,107.39,80.3,97,80.3,97l0-10.81h-23V82.91H89.39s15.39,1.74,15.39-22.53S91.35,37,91.35,37Z"/><path class="cls-20" d="M48.71,24.47a4.13,4.13,0,0,1-4.12,4.13h0a4.12,4.12,0,0,1-4.13-4.12h0a4.12,4.12,0,0,1,4.12-4.12h0a4.12,4.12,0,0,1,4.13,4.12ZM44.87,58.8H67.64s12.79.2,12.79-12.37V25.65s1.94-12.57-23.2-12.57c-24,0-22.55,10.43-22.55,10.43l0,10.81H57.66v3.24H25.59S10.2,35.81,10.2,60.08,23.64,83.49,23.64,83.49h8V72.23S31.22,58.8,44.87,58.8Z"/><path class="cls-20" d="M66.44,95.93a4.13,4.13,0,0,1,4.13-4.12h0a4.12,4.12,0,0,1,4.13,4.12h0a4.12,4.12,0,0,1-4.12,4.13h0a4.12,4.12,0,0,1-4.13-4.12Zm25.07-59h-8V48.18s.43,13.43-13.22,13.43H47.51S34.72,61.41,34.72,74V94.75s-1.94,12.58,23.2,12.58h0c24,0,22.55-10.43,22.55-10.43l0-10.81H57.49V82.85H89.56S105,84.6,105,60.33,91.51,36.92,91.51,36.92Z"/><path class="cls-21" d="M48.87,24.42a4.14,4.14,0,0,1-4.12,4.13h0a4.14,4.14,0,0,1-4.13-4.13h0a4.13,4.13,0,0,1,4.13-4.13h0a4.12,4.12,0,0,1,4.13,4.12ZM45,58.74H67.8s12.79.2,12.79-12.36V25.6S82.54,13,57.4,13c-24,0-22.55,10.43-22.55,10.43l0,10.81H57.83V37.5H25.76S10.37,35.76,10.37,60,23.8,83.43,23.8,83.43h8V72.17S31.39,58.74,45,58.74Z"/><path class="cls-21" d="M66.61,95.88a4.12,4.12,0,0,1,4.12-4.13h0a4.12,4.12,0,0,1,4.13,4.12h0A4.14,4.14,0,0,1,70.75,100h0a4.13,4.13,0,0,1-4.13-4.13Zm25.07-59h-8V48.12s.43,13.43-13.22,13.43H47.68s-12.79-.2-12.79,12.37V94.7S33,107.27,58.08,107.27h0c24,0,22.55-10.43,22.55-10.43l0-10.8h-23V82.79H89.72s15.39,1.75,15.39-22.52S91.68,36.86,91.68,36.86Z"/><path class="cls-22" d="M49,24.36a4.13,4.13,0,0,1-4.12,4.13h0a4.13,4.13,0,0,1-4.13-4.12h0a4.12,4.12,0,0,1,4.12-4.13h0A4.12,4.12,0,0,1,49,24.35ZM45.2,58.68H68s12.79.21,12.79-12.36V25.54S82.7,13,57.56,13C33.51,13,35,23.39,35,23.39L35,34.2H58v3.24H25.92S10.53,35.7,10.53,60,24,83.37,24,83.37h8V72.11S31.55,58.68,45.2,58.68Z"/><path class="cls-22" d="M66.77,95.82a4.13,4.13,0,0,1,4.13-4.13h0A4.12,4.12,0,0,1,75,95.81h0A4.13,4.13,0,0,1,70.91,100h0a4.14,4.14,0,0,1-4.13-4.12Zm25.07-59h-8V48.06S84.26,61.5,70.61,61.5H47.84s-12.79-.21-12.79,12.36V94.64s-1.94,12.57,23.2,12.57h0c24,0,22.55-10.43,22.55-10.43l0-10.8H57.82V82.73H89.89s15.39,1.75,15.39-22.52S91.84,36.8,91.84,36.8Z"/><path class="cls-23" d="M49.2,24.3a4.12,4.12,0,0,1-4.12,4.13h0a4.14,4.14,0,0,1-4.13-4.12h0a4.13,4.13,0,0,1,4.13-4.13h0a4.12,4.12,0,0,1,4.13,4.12ZM45.37,58.62H68.13s12.79.21,12.79-12.36V25.48s2-12.58-23.19-12.58c-24,0-22.55,10.43-22.55,10.43l0,10.81H58.16v3.24H26.09S10.7,35.64,10.7,59.91,24.13,83.32,24.13,83.32h8V72.05S31.72,58.62,45.37,58.62Z"/><path class="cls-23" d="M66.94,95.76a4.12,4.12,0,0,1,4.12-4.13h0a4.12,4.12,0,0,1,4.13,4.12h0a4.13,4.13,0,0,1-4.12,4.13h0a4.12,4.12,0,0,1-4.13-4.12ZM92,36.74H84V48s.43,13.44-13.22,13.44H48S35.22,61.23,35.22,73.8V94.58s-1.94,12.58,23.19,12.58h0c24,0,22.55-10.44,22.55-10.44l0-10.8H58V82.67H90.05s15.39,1.75,15.39-22.52S92,36.74,92,36.74Z"/><path class="cls-24" d="M49.37,24.24a4.13,4.13,0,0,1-4.12,4.13h0a4.12,4.12,0,0,1-4.13-4.12h0a4.12,4.12,0,0,1,4.12-4.13h0a4.13,4.13,0,0,1,4.13,4.12ZM45.53,58.56H68.3s12.79.21,12.79-12.36V25.42S83,12.85,57.9,12.85c-24.06,0-22.56,10.43-22.56,10.43l0,10.8h23v3.25H26.26s-15.4-1.75-15.4,22.52S24.3,83.26,24.3,83.26h8V72S31.88,58.56,45.53,58.56Z"/><path class="cls-24" d="M67.1,95.7a4.13,4.13,0,0,1,4.13-4.13h0a4.13,4.13,0,0,1,4.13,4.12h0a4.12,4.12,0,0,1-4.12,4.13h0a4.14,4.14,0,0,1-4.13-4.12Zm25.07-59h-8V48s.43,13.43-13.22,13.43H48.17s-12.79-.21-12.79,12.36V94.52s-1.94,12.58,23.2,12.58h0c24,0,22.55-10.43,22.55-10.43l0-10.81H58.15V82.62H90.22s15.39,1.74,15.39-22.53S92.17,36.68,92.17,36.68Z"/><path class="cls-25" d="M49.53,24.18a4.12,4.12,0,0,1-4.12,4.13h0a4.12,4.12,0,0,1-4.12-4.12h0a4.12,4.12,0,0,1,4.12-4.13h0a4.13,4.13,0,0,1,4.13,4.13ZM45.7,58.5H68.46s12.79.21,12.79-12.36V25.36s2-12.57-23.19-12.57C34,12.79,35.51,23.22,35.51,23.22l0,10.8h23v3.25H26.42S11,35.52,11,59.79,24.46,83.2,24.46,83.2h8V71.94S32.05,58.5,45.7,58.5Z"/><path class="cls-25" d="M67.27,95.64a4.13,4.13,0,0,1,4.12-4.13h0a4.13,4.13,0,0,1,4.13,4.13h0a4.12,4.12,0,0,1-4.12,4.13h0a4.12,4.12,0,0,1-4.13-4.12Zm25.07-59h-8V47.89s.44,13.43-13.22,13.43H48.34s-12.79-.21-12.79,12.36V94.46S33.61,107,58.74,107h0c24.06,0,22.55-10.43,22.55-10.43l0-10.81h-23V82.56H90.38S105.77,84.3,105.77,60,92.34,36.63,92.34,36.63Z"/><path class="cls-26" d="M49.7,24.12a4.12,4.12,0,0,1-4.12,4.13h0a4.12,4.12,0,0,1-4.13-4.12h0A4.12,4.12,0,0,1,45.56,20h0a4.12,4.12,0,0,1,4.13,4.12ZM45.86,58.45H68.63s12.79.2,12.79-12.37V25.3s1.94-12.57-23.19-12.57c-24.06,0-22.55,10.43-22.55,10.43l0,10.8H58.65v3.25H26.59s-15.4-1.75-15.4,22.52S24.63,83.14,24.63,83.14h8V71.88S32.21,58.45,45.86,58.45Z"/><path class="cls-26" d="M67.44,95.58a4.13,4.13,0,0,1,4.12-4.13h0a4.13,4.13,0,0,1,4.13,4.13h0a4.12,4.12,0,0,1-4.12,4.13h0a4.11,4.11,0,0,1-4.12-4.12Zm25.07-59h-8V47.83s.43,13.43-13.22,13.43H48.5s-12.79-.2-12.79,12.36V94.4S33.77,107,58.91,107h0c24,0,22.55-10.43,22.55-10.43l0-10.81h-23V82.5H90.55S105.94,84.24,105.94,60,92.51,36.57,92.51,36.57Z"/><path class="cls-27" d="M49.86,24.07a4.13,4.13,0,0,1-4.12,4.13h0a4.13,4.13,0,0,1-4.12-4.13h0a4.12,4.12,0,0,1,4.12-4.13h0a4.12,4.12,0,0,1,4.13,4.12ZM46,58.39H68.79s12.79.2,12.79-12.36V25.25s2-12.58-23.19-12.58c-24,0-22.55,10.43-22.55,10.43l0,10.81h23v3.24H26.75S11.36,35.41,11.36,59.67,24.79,83.08,24.79,83.08h8V71.82S32.38,58.39,46,58.39Z"/><path class="cls-27" d="M67.6,95.53a4.12,4.12,0,0,1,4.12-4.13h0a4.12,4.12,0,0,1,4.13,4.12h0a4.12,4.12,0,0,1-4.12,4.12h0a4.13,4.13,0,0,1-4.13-4.13Zm25.07-59h-8V47.77S85.09,61.2,71.43,61.2H48.67S35.88,61,35.88,73.57V94.35s-1.94,12.57,23.19,12.57h0c24.06,0,22.55-10.43,22.55-10.43l0-10.8h-23V82.44H90.71s15.39,1.75,15.39-22.52S92.67,36.51,92.67,36.51Z"/><path class="cls-28" d="M50,24a4.13,4.13,0,0,1-4.12,4.13h0A4.13,4.13,0,0,1,41.77,24h0a4.12,4.12,0,0,1,4.12-4.13h0A4.12,4.12,0,0,1,50,24ZM46.2,58.33H69s12.79.2,12.79-12.36V25.19s1.94-12.58-23.19-12.58C34.5,12.61,36,23,36,23l0,10.81H59v3.24H26.92S11.53,35.35,11.53,59.62,25,83,25,83h8V71.76S32.54,58.33,46.2,58.33Z"/><path class="cls-28" d="M67.77,95.47a4.12,4.12,0,0,1,4.12-4.13h0A4.12,4.12,0,0,1,76,95.46h0A4.12,4.12,0,0,1,71.9,99.6h0a4.13,4.13,0,0,1-4.13-4.12Zm25.07-59h-8V47.71s.43,13.44-13.22,13.44H48.84s-12.79-.21-12.79,12.36V94.29s-1.95,12.57,23.19,12.57h0c24.05,0,22.55-10.43,22.55-10.43l0-10.8h-23V82.38H90.88s15.39,1.75,15.39-22.52S92.84,36.45,92.84,36.45Z"/><path class="cls-29" d="M50.19,24a4.12,4.12,0,0,1-4.12,4.13h0A4.13,4.13,0,0,1,41.94,24h0a4.12,4.12,0,0,1,4.12-4.13h0a4.12,4.12,0,0,1,4.12,4.12ZM46.36,58.27H69.13s12.78.21,12.78-12.36V25.13s2-12.58-23.19-12.58C34.67,12.55,36.17,23,36.17,23l0,10.81H59.15V37H27.08S11.69,35.29,11.69,59.56,25.12,83,25.12,83h8V71.7S32.71,58.27,46.36,58.27Z"/><path class="cls-29" d="M67.93,95.41a4.12,4.12,0,0,1,4.12-4.13h0a4.12,4.12,0,0,1,4.13,4.12h0a4.12,4.12,0,0,1-4.12,4.13h0a4.12,4.12,0,0,1-4.13-4.12ZM93,36.39H85V47.65s.44,13.44-13.22,13.44H49s-12.79-.21-12.79,12.36V94.23S34.27,106.8,59.4,106.8h0C83.46,106.8,82,96.37,82,96.37l0-10.8H59V82.32H91s15.39,1.75,15.39-22.52S93,36.39,93,36.39Z"/><path class="cls-30" d="M50.36,23.89A4.12,4.12,0,0,1,46.24,28h0A4.12,4.12,0,0,1,42.1,23.9h0a4.12,4.12,0,0,1,4.12-4.13h0a4.12,4.12,0,0,1,4.13,4.12ZM46.53,58.21H69.29s12.79.21,12.79-12.36V25.07S84,12.49,58.89,12.49c-24.06,0-22.55,10.43-22.55,10.43l0,10.81h23V37H27.25S11.86,35.23,11.86,59.5,25.29,82.91,25.29,82.91h8V71.64S32.87,58.21,46.53,58.21Z"/><path class="cls-30" d="M68.1,95.35a4.12,4.12,0,0,1,4.12-4.13h0a4.12,4.12,0,0,1,4.12,4.12h0a4.12,4.12,0,0,1-4.12,4.13h0a4.12,4.12,0,0,1-4.13-4.12Zm25.07-59h-8V47.6S85.58,61,71.93,61H49.17s-12.79-.21-12.79,12.36V94.17s-2,12.58,23.19,12.58h0c24.05,0,22.55-10.43,22.55-10.43l0-10.81h-23V82.27H91.21S106.6,84,106.6,59.74,93.17,36.33,93.17,36.33Z"/><path class="cls-31" d="M50.53,23.83A4.13,4.13,0,0,1,46.4,28h0a4.12,4.12,0,0,1-4.13-4.12h0a4.12,4.12,0,0,1,4.12-4.13h0a4.14,4.14,0,0,1,4.13,4.12ZM46.69,58.15H69.46s12.79.21,12.79-12.36V25s1.94-12.57-23.2-12.57c-24,0-22.55,10.43-22.55,10.43l0,10.8H59.48v3.25H27.41S12,35.17,12,59.44,25.45,82.85,25.45,82.85h8V71.59S33,58.15,46.69,58.15Z"/><path class="cls-31" d="M68.26,95.29a4.13,4.13,0,0,1,4.12-4.13h0a4.13,4.13,0,0,1,4.13,4.12h0a4.12,4.12,0,0,1-4.12,4.13h0a4.12,4.12,0,0,1-4.13-4.12Zm25.07-59h-8V47.54S85.75,61,72.1,61H49.33s-12.79-.21-12.79,12.36V94.11s-1.94,12.58,23.19,12.58h0c24.06,0,22.56-10.43,22.56-10.43l0-10.81h-23V82.21H91.37s15.4,1.74,15.4-22.53S93.33,36.28,93.33,36.28Z"/><path class="cls-32" d="M50.69,23.77a4.12,4.12,0,0,1-4.12,4.13h0a4.12,4.12,0,0,1-4.13-4.12h0a4.14,4.14,0,0,1,4.12-4.13h0a4.13,4.13,0,0,1,4.13,4.13ZM46.86,58.09H69.62s12.79.21,12.79-12.36V25s1.94-12.57-23.19-12.57c-24,0-22.55,10.43-22.55,10.43l0,10.8h23v3.25H27.58S12.19,35.11,12.19,59.38,25.62,82.79,25.62,82.79h8V71.53S33.2,58.09,46.86,58.09Z"/><path class="cls-32" d="M68.43,95.23a4.13,4.13,0,0,1,4.12-4.13h0a4.14,4.14,0,0,1,4.13,4.13h0a4.13,4.13,0,0,1-4.13,4.13h0a4.12,4.12,0,0,1-4.13-4.12Zm25.07-59h-8V47.48s.43,13.43-13.22,13.43H49.5s-12.79-.2-12.79,12.36V94.05s-2,12.58,23.19,12.58h0C84,106.63,82.45,96.2,82.45,96.2l0-10.81h-23V82.15H91.54s15.39,1.74,15.39-22.52S93.5,36.22,93.5,36.22Z"/><path class="cls-33" d="M50.86,23.72a4.13,4.13,0,0,1-4.13,4.12h0a4.12,4.12,0,0,1-4.13-4.12h0a4.12,4.12,0,0,1,4.12-4.13h0a4.13,4.13,0,0,1,4.13,4.12ZM47,58H69.79s12.79.2,12.79-12.36V24.9s1.94-12.58-23.2-12.58c-24.05,0-22.55,10.43-22.55,10.43l0,10.81h23V36.8H27.74S12.35,35.05,12.35,59.32,25.79,82.73,25.79,82.73h8V71.47S33.37,58,47,58Z"/><path class="cls-33" d="M68.59,95.18a4.13,4.13,0,0,1,4.12-4.13h0a4.12,4.12,0,0,1,4.13,4.12h0a4.12,4.12,0,0,1-4.12,4.12h0a4.12,4.12,0,0,1-4.13-4.12Zm25.07-59h-8V47.42s.43,13.43-13.22,13.43H49.66s-12.79-.2-12.79,12.37V94s-1.94,12.57,23.2,12.57h0c24.05,0,22.55-10.43,22.55-10.43l0-10.81h-23V82.09H91.71s15.39,1.75,15.39-22.52S93.66,36.16,93.66,36.16Z"/><path class="cls-34" d="M51,23.66a4.13,4.13,0,0,1-4.12,4.13h0a4.13,4.13,0,0,1-4.13-4.13h0a4.13,4.13,0,0,1,4.12-4.13h0A4.12,4.12,0,0,1,51,23.65ZM47.19,58H70s12.79.2,12.79-12.36V24.84s1.94-12.58-23.19-12.58C35.5,12.26,37,22.69,37,22.69L37,33.5H60v3.24H27.91S12.52,35,12.52,59.26,26,82.67,26,82.67h8V71.41S33.54,58,47.19,58Z"/><path class="cls-34" d="M68.76,95.12A4.12,4.12,0,0,1,72.88,91h0A4.13,4.13,0,0,1,77,95.11h0a4.14,4.14,0,0,1-4.13,4.13h0a4.13,4.13,0,0,1-4.13-4.13Zm25.07-59h-8V47.36S86.24,60.8,72.59,60.8H49.83S37,60.59,37,73.16V93.94s-1.95,12.57,23.19,12.57h0c24.05,0,22.55-10.43,22.55-10.43l0-10.8h-23V82H91.87s15.39,1.75,15.39-22.52S93.83,36.1,93.83,36.1Z"/><path class="cls-35" d="M51.19,23.6a4.13,4.13,0,0,1-4.13,4.13h0a4.13,4.13,0,0,1-4.13-4.12h0a4.12,4.12,0,0,1,4.12-4.13h0a4.13,4.13,0,0,1,4.13,4.12ZM47.35,57.92H70.12s12.79.21,12.79-12.36V24.78S84.85,12.2,59.71,12.2c-24.05,0-22.55,10.43-22.55,10.43l0,10.81h23v3.24H28.07S12.68,34.94,12.68,59.21s13.44,23.4,13.44,23.4h8V71.35S33.7,57.92,47.35,57.92Z"/><path class="cls-35" d="M68.92,95.06A4.13,4.13,0,0,1,73,90.93h0a4.12,4.12,0,0,1,4.13,4.12h0a4.12,4.12,0,0,1-4.12,4.13h0a4.13,4.13,0,0,1-4.13-4.12ZM94,36H86V47.3s.43,13.44-13.22,13.44H50S37.2,60.53,37.2,73.1V93.88s-1.94,12.57,23.2,12.57h0C84.45,106.45,83,96,83,96l0-10.8H60V82H92s15.39,1.75,15.39-22.52S94,36,94,36Z"/><path d="M51.35,23.54a4.12,4.12,0,0,1-4.12,4.13h0a4.13,4.13,0,0,1-4.13-4.12h0a4.13,4.13,0,0,1,4.12-4.13h0a4.12,4.12,0,0,1,4.13,4.12ZM47.52,57.86H70.28s12.79.21,12.79-12.36V24.72S85,12.14,59.88,12.14c-24.05,0-22.55,10.43-22.55,10.43l0,10.81h23v3.25H28.24S12.85,34.88,12.85,59.15,26.28,82.56,26.28,82.56h8V71.29S33.87,57.86,47.52,57.86Z"/><path d="M69.09,95a4.12,4.12,0,0,1,4.12-4.13h0A4.13,4.13,0,0,1,77.35,95h0a4.13,4.13,0,0,1-4.13,4.13h0A4.12,4.12,0,0,1,69.09,95ZM94.16,36h-8V47.24s.43,13.44-13.22,13.44H50.16S37.37,60.47,37.37,73V93.82S35.43,106.4,60.56,106.4h0c24,0,22.55-10.43,22.55-10.43l0-10.81H60.13V81.92H92.2s15.39,1.74,15.39-22.53S94.16,36,94.16,36Z"/></g><path class="cls-36" d="M60.21,12.27c-24.06,0-22.55,10.43-22.55,10.43l0,10.81h23v3.24H28.57S13.18,35,13.18,59.28,26.61,82.69,26.61,82.69h8V71.42S34.19,58,47.85,58H70.61S83.4,58.2,83.4,45.63V24.85S85.34,12.27,60.21,12.27ZM47.55,19.54a4.12,4.12,0,0,1,4.13,4.12h0a4.12,4.12,0,0,1-4.12,4.13h0a4.13,4.13,0,0,1-4.13-4.12h0a4.12,4.12,0,0,1,4.12-4.13Z"/><path class="cls-5" d="M26.41,83.17A11.14,11.14,0,0,1,19,80c-4.21-4-6.34-10.91-6.34-20.69,0-9.2,2.17-15.81,6.46-19.64a13,13,0,0,1,9.43-3.37H60.16V34h-23l0-11.26a6.84,6.84,0,0,1,1.89-5C41.4,15,47,11.79,60.21,11.79c10.52,0,17.69,2.16,21.33,6.4a9,9,0,0,1,2.34,6.69V45.63a12.21,12.21,0,0,1-3.39,9.07c-3.89,3.82-9.64,3.77-9.89,3.77H47.85c-3.93,0-7,1.14-9.21,3.39-3.67,3.78-3.54,9.49-3.53,9.55V83.16h-8.7Zm1.52-46a12.39,12.39,0,0,0-8.15,3.16c-4.06,3.64-6.12,10-6.12,18.91,0,9.48,2,16.2,6,20a10.15,10.15,0,0,0,6.9,3h7.57V71.42c0-.23-.15-6.14,3.8-10.22,2.37-2.45,5.7-3.69,9.9-3.69H70.61c.06,0,5.61,0,9.21-3.5a11.28,11.28,0,0,0,3.1-8.38V24.78a8.18,8.18,0,0,0-2.13-6c-2.38-2.75-7.88-6-20.59-6s-18.18,3-20.39,5.54a5.87,5.87,0,0,0-1.69,4.35v.06l0,10.33h23v4.2H28.51S28.29,37.21,27.93,37.21Zm19.62-8.93a4.61,4.61,0,0,1,0-9.22v0h0a4.61,4.61,0,0,1,0,9.22Zm0-8.26a3.65,3.65,0,0,0,0,7.3h0a3.65,3.65,0,0,0,3.65-3.65A3.65,3.65,0,0,0,47.55,20h0Z"/><path class="cls-37" d="M60.72,106.44c24,0,22.55-10.43,22.55-10.43l0-10.81H60.29V82H92.36s15.39,1.74,15.39-22.52S94.32,36,94.32,36h-8V47.29s.43,13.43-13.22,13.43H50.31s-12.79-.2-12.79,12.36V93.86s-1.94,12.58,23.2,12.58Zm12.65-7.27a4.11,4.11,0,0,1-4.12-4.12h0a4.13,4.13,0,0,1,4.12-4.13h0A4.13,4.13,0,0,1,77.5,95h0a4.12,4.12,0,0,1-4.12,4.13Z"/><path class="cls-5" d="M60.72,106.92c-10.52,0-17.7-2.15-21.34-6.4a8.92,8.92,0,0,1-2.33-6.69V73.08A12.17,12.17,0,0,1,40.44,64c3.89-3.83,9.63-3.77,9.88-3.78H73.08c3.92,0,7-1.14,9.2-3.39,3.67-3.78,3.54-9.49,3.54-9.55V35.55h8.5a10.89,10.89,0,0,1,7.56,3.19c4.21,3.95,6.35,10.92,6.35,20.7,0,9.19-2.18,15.8-6.46,19.63a13.07,13.07,0,0,1-9.44,3.37H60.77v2.28H83.72l0,11.26a6.87,6.87,0,0,1-1.89,5C79.53,103.71,74,106.92,60.72,106.92ZM50.3,61.2c-.37,0-5.71.07-9.19,3.5A11.28,11.28,0,0,0,38,73.08V93.94a8.06,8.06,0,0,0,2.13,6c2.38,2.76,7.88,6,20.59,6h0c12.89,0,18.21-3,20.41-5.57a5.82,5.82,0,0,0,1.66-4.31V96l0-10.33h-23v-4.2h32.6a12.21,12.21,0,0,0,8.73-3.14c4.07-3.64,6.13-10,6.13-18.9,0-9.49-2-16.21-6-20a10.07,10.07,0,0,0-6.9-3H86.78V47.29c0,.23.15,6.14-3.8,10.22-2.37,2.45-5.7,3.69-9.9,3.69H50.3ZM73.37,99.65a4.61,4.61,0,0,1,0-9.22h0a4.61,4.61,0,0,1,0,9.22h0Zm0-8.26h0a3.65,3.65,0,0,0,0,7.3h0a3.65,3.65,0,0,0,0-7.3Z"/></g></g></svg>